<?xml version="1.0" encoding="UTF-8" standalone="no"?>
<!-- Created with Inkscape (http://www.inkscape.org/) -->

<svg
   width="355.81546"
   height="333.91797"
   viewBox="0 0 94.142841 88.349129"
   version="1.1"
   id="svg5"
   inkscape:version="1.1 (c4e8f9e, 2021-05-24)"
   sodipodi:docname="monotreme.svg"
   inkscape:export-filename="/Users/opott/Documents/Graphic design/Graphic design/monotreme_gray.png"
   inkscape:export-xdpi="300"
   inkscape:export-ydpi="300"
   xmlns:inkscape="http://www.inkscape.org/namespaces/inkscape"
   xmlns:sodipodi="http://sodipodi.sourceforge.net/DTD/sodipodi-0.dtd"
   xmlns:xlink="http://www.w3.org/1999/xlink"
   xmlns="http://www.w3.org/2000/svg"
   xmlns:svg="http://www.w3.org/2000/svg">
  <sodipodi:namedview
     id="namedview7"
     pagecolor="#ffffff"
     bordercolor="#666666"
     borderopacity="1.0"
     inkscape:pageshadow="2"
     inkscape:pageopacity="0.0"
     inkscape:pagecheckerboard="0"
     inkscape:document-units="px"
     showgrid="false"
     inkscape:zoom="0.48229806"
     inkscape:cx="2.0734067"
     inkscape:cy="181.42308"
     inkscape:window-width="1680"
     inkscape:window-height="997"
     inkscape:window-x="0"
     inkscape:window-y="25"
     inkscape:window-maximized="0"
     inkscape:current-layer="layer1"
     fit-margin-top="0"
     fit-margin-left="0"
     fit-margin-right="0"
     fit-margin-bottom="0" />
  <defs
     id="defs2">
    <inkscape:perspective
       sodipodi:type="inkscape:persp3d"
       inkscape:vp_x="0 : -54.525871 : 1"
       inkscape:vp_y="0 : 1000 : 0"
       inkscape:vp_z="508 : -54.525871 : 1"
       inkscape:persp3d-origin="254 : -102.15087 : 1"
       id="perspective923" />
    <inkscape:path-effect
       effect="roughen"
       id="path-effect4234"
       is_visible="false"
       lpeversion="1.1"
       method="size"
       max_segment_size="18.116"
       segments="10"
       displace_x="0.3;1"
       displace_y="0.1;1"
       global_randomize="1;1"
       handles="along"
       shift_nodes="true"
       fixed_displacement="true"
       spray_tool_friendly="false" />
    <inkscape:path-effect
       effect="skeletal"
       id="path-effect2726"
       is_visible="true"
       lpeversion="1"
       pattern="m -36.849279,-221.04402 c 1.758397,-3.36971 6.939946,-4.1454 11.565937,-1.73145 4.626004,2.41396 6.953331,7.10795 5.19493,10.47767 -1.758397,3.36972 -6.939938,4.14541 -11.565937,1.73145 -4.625998,-2.41396 -6.953328,-7.10795 -5.19493,-10.47767 z"
       copytype="single_stretched"
       prop_scale="0.66610613"
       scale_y_rel="false"
       spacing="0"
       normal_offset="0"
       tang_offset="0"
       prop_units="false"
       vertical_pattern="false"
       hide_knot="false"
       fuse_tolerance="0" />
    <inkscape:path-effect
       effect="powerstroke"
       id="path-effect2614"
       is_visible="true"
       lpeversion="1"
       offset_points="0.2,0.1322915 | 2.5,0.1322915 | 4.8,0.1322915"
       not_jump="false"
       sort_points="true"
       interpolator_type="CentripetalCatmullRom"
       interpolator_beta="0.51445087"
       start_linecap_type="zerowidth"
       linejoin_type="round"
       miter_limit="3.4"
       scale_width="0.5"
       end_linecap_type="zerowidth" />
    <inkscape:path-effect
       effect="taper_stroke"
       id="path-effect2471"
       is_visible="true"
       lpeversion="1"
       stroke_width="0.6"
       attach_start="4.2"
       end_offset="0.8"
       start_smoothing="1.1"
       end_smoothing="0.5"
       jointype="extrapolated"
       start_shape="center"
       end_shape="center"
       miter_limit="100" />
    <inkscape:path-effect
       effect="taper_stroke"
       id="path-effect2468"
       is_visible="true"
       lpeversion="1"
       stroke_width="0.36"
       attach_start="0.2"
       end_offset="0.2"
       start_smoothing="2"
       end_smoothing="0.5"
       jointype="extrapolated"
       start_shape="center"
       end_shape="center"
       miter_limit="100" />
    <inkscape:path-effect
       effect="taper_stroke"
       id="path-effect2439"
       is_visible="true"
       lpeversion="1"
       stroke_width="0.36"
       attach_start="0.2"
       end_offset="0.2"
       start_smoothing="2"
       end_smoothing="0.5"
       jointype="extrapolated"
       start_shape="center"
       end_shape="center"
       miter_limit="100" />
    <inkscape:path-effect
       effect="taper_stroke"
       id="path-effect2330"
       is_visible="true"
       lpeversion="1"
       stroke_width="0.46"
       attach_start="0.2"
       end_offset="0.44893658"
       start_smoothing="2"
       end_smoothing="0.5"
       jointype="extrapolated"
       start_shape="center"
       end_shape="center"
       miter_limit="100" />
    <inkscape:path-effect
       effect="taper_stroke"
       id="path-effect2013"
       is_visible="true"
       lpeversion="1"
       stroke_width="0.46"
       attach_start="0.2"
       end_offset="0.35926312"
       start_smoothing="2"
       end_smoothing="0.5"
       jointype="extrapolated"
       start_shape="center"
       end_shape="center"
       miter_limit="100" />
    <inkscape:path-effect
       effect="taper_stroke"
       id="path-effect2009"
       is_visible="true"
       lpeversion="1"
       stroke_width="0.34"
       attach_start="0.2"
       end_offset="0.38128097"
       start_smoothing="2"
       end_smoothing="0.5"
       jointype="extrapolated"
       start_shape="center"
       end_shape="center"
       miter_limit="100" />
    <inkscape:path-effect
       effect="taper_stroke"
       id="path-effect1879"
       is_visible="true"
       lpeversion="1"
       stroke_width="0.36"
       attach_start="0.2"
       end_offset="0.2"
       start_smoothing="2"
       end_smoothing="0.5"
       jointype="extrapolated"
       start_shape="center"
       end_shape="center"
       miter_limit="100" />
    <inkscape:path-effect
       effect="taper_stroke"
       id="path-effect1875"
       is_visible="true"
       lpeversion="1"
       stroke_width="0.36"
       attach_start="0.2"
       end_offset="0.2"
       start_smoothing="2"
       end_smoothing="0.5"
       jointype="extrapolated"
       start_shape="center"
       end_shape="center"
       miter_limit="100" />
    <inkscape:path-effect
       effect="taper_stroke"
       id="path-effect1871"
       is_visible="true"
       lpeversion="1"
       stroke_width="0.46"
       attach_start="0.2"
       end_offset="0.2"
       start_smoothing="2"
       end_smoothing="0.5"
       jointype="extrapolated"
       start_shape="center"
       end_shape="center"
       miter_limit="100" />
    <inkscape:path-effect
       effect="taper_stroke"
       id="path-effect1867"
       is_visible="true"
       lpeversion="1"
       stroke_width="0.56"
       attach_start="0.2"
       end_offset="0.2"
       start_smoothing="2"
       end_smoothing="0.5"
       jointype="extrapolated"
       start_shape="center"
       end_shape="center"
       miter_limit="100" />
    <inkscape:path-effect
       effect="taper_stroke"
       id="path-effect1863"
       is_visible="true"
       lpeversion="1"
       stroke_width="0.36"
       attach_start="0.2"
       end_offset="0.2"
       start_smoothing="2"
       end_smoothing="0.5"
       jointype="extrapolated"
       start_shape="center"
       end_shape="center"
       miter_limit="100" />
    <inkscape:path-effect
       effect="taper_stroke"
       id="path-effect1837"
       is_visible="true"
       lpeversion="1"
       stroke_width="0.46"
       attach_start="0.2"
       end_offset="0.2"
       start_smoothing="2"
       end_smoothing="0.5"
       jointype="extrapolated"
       start_shape="center"
       end_shape="center"
       miter_limit="100" />
    <inkscape:path-effect
       effect="skeletal"
       id="path-effect2121"
       is_visible="true"
       lpeversion="1"
       pattern="m 0.67884406,2.7616508 c 0,-2.75566042 2.23647804,-4.9921384 4.99213844,-4.9921384 2.7556603,0 4.9921385,2.23647798 4.9921385,4.9921384 0,2.7556603 -2.2364782,4.9921383 -4.9921385,4.9921383 -2.7556604,0 -4.99213844,-2.236478 -4.99213844,-4.9921383 z"
       copytype="single_stretched"
       prop_scale="0.66610613"
       scale_y_rel="false"
       spacing="0"
       normal_offset="0"
       tang_offset="0"
       prop_units="false"
       vertical_pattern="false"
       hide_knot="false"
       fuse_tolerance="0" />
    <inkscape:path-effect
       effect="skeletal"
       id="path-effect2023"
       is_visible="true"
       lpeversion="1"
       pattern="M 0,4.9921384 C 0,2.236478 2.236478,0 4.9921384,0 c 2.7556603,0 4.9921383,2.236478 4.9921383,4.9921384 0,2.7556603 -2.236478,4.9921383 -4.9921383,4.9921383 C 2.236478,9.9842767 0,7.7477987 0,4.9921384 Z"
       copytype="single_stretched"
       prop_scale="0.85907027"
       scale_y_rel="false"
       spacing="0"
       normal_offset="0"
       tang_offset="0"
       prop_units="false"
       vertical_pattern="false"
       hide_knot="false"
       fuse_tolerance="0" />
    <inkscape:path-effect
       effect="fill_between_many"
       method="bsplinespiro"
       linkedpaths="#path6244,0,1"
       id="path-effect2616"
       is_visible="true"
       lpeversion="0"
       join="true"
       close="true"
       autoreverse="true"
       applied="false" />
  </defs>
  <g
     inkscape:groupmode="layer"
     id="layer3"
     inkscape:label="TONGE"
     style="display:none"
     transform="translate(-195.25875,-105.29166)">
    <path
       d="m 210.48873,188.69917 c 0,0 0.32935,2.42782 -0.35163,3.19946 -4.06947,4.61122 -32.70935,31.27662 -37.77529,33.83029 -0.81974,0.41322 -1.38633,-0.28918 -1.34942,-0.53414 0.0815,-0.54103 0.49381,-0.25758 1.51017,-1.08766 8.05656,-6.57993 41.04509,-33.16888 33.89192,-32.72181 z"
       id="path2618"
       style="fill:#f46c91"
       inkscape:original-d="M 0,0"
       inkscape:path-effect="#path-effect2616" />
    <path
       style="fill:#000000;fill-opacity:1;fill-rule:nonzero;stroke:none;stroke-width:0.264583px;stroke-linecap:butt;stroke-linejoin:miter;stroke-opacity:1"
       d="m 210.48873,188.69917 c -0.0124,0.002 -0.0439,0.0216 -0.037,0.26504 0.001,0.0371 0.003,0.08 0.005,0.13251 0.007,0.14963 0.0273,0.52994 0.0232,0.91246 -0.003,0.31013 -0.0227,0.69505 -0.0907,1.0466 -0.0308,0.15914 -0.0719,0.31283 -0.12647,0.44979 -0.0521,0.13076 -0.11595,0.24459 -0.19351,0.33318 -0.25072,0.28444 -0.59814,0.65636 -1.03586,1.10926 -0.43066,0.4456 -0.94753,0.96836 -1.5427,1.56042 -1.16763,1.16154 -2.63303,2.58622 -4.32037,4.19966 -3.28659,3.14264 -7.39998,6.98648 -11.60236,10.81669 -4.14588,3.7787 -8.32719,7.49727 -11.78836,10.43077 -1.737,1.47219 -3.28309,2.73857 -4.55226,3.71697 -0.63916,0.49273 -1.2066,0.91127 -1.69247,1.24628 -0.24415,0.16835 -0.46737,0.31537 -0.66854,0.44002 -0.20205,0.1252 -0.38129,0.22749 -0.53678,0.30609 -0.19791,0.1015 -0.37461,0.13107 -0.52493,0.12168 -0.16145,-0.0101 -0.29729,-0.0653 -0.40289,-0.1335 -0.10708,-0.0691 -0.1947,-0.15912 -0.2524,-0.25024 -0.027,-0.0426 -0.0461,-0.0834 -0.057,-0.11928 -0.005,-0.0175 -0.008,-0.0332 -0.01,-0.0467 -0.001,-0.0135 -7.4e-4,-0.0239 7.9e-4,-0.0314 0.0102,-0.0624 0.0247,-0.11005 0.043,-0.14767 0.0178,-0.0367 0.0396,-0.0648 0.0662,-0.0888 0.0269,-0.0242 0.0601,-0.0456 0.10269,-0.0672 0.0429,-0.0218 0.0931,-0.0426 0.15332,-0.0669 0.12271,-0.0494 0.27492,-0.10814 0.46196,-0.20734 0.19487,-0.10335 0.41601,-0.24465 0.66932,-0.45039 1.80026,-1.46925 2.26321,-1.84346 4.06348,-3.31272 1.72029,-1.4056 3.62483,-2.96874 5.63824,-4.63828 4.59069,-3.80666 9.0621,-7.59883 12.94924,-11.04904 2.25983,-2.00581 4.18194,-3.77167 5.78537,-5.30982 1.95924,-1.8795 3.34111,-3.32157 4.30841,-4.43513 0.48247,-0.55542 0.85281,-1.01876 1.13852,-1.40776 0.0798,-0.10865 0.15396,-0.21281 0.22275,-0.31267 0.18244,-0.26484 0.32723,-0.49949 0.43991,-0.70757 0.1239,-0.22881 0.20915,-0.42583 0.26282,-0.59569 0.0601,-0.19033 0.0809,-0.34733 0.0712,-0.47666 -0.005,-0.0716 -0.02,-0.13465 -0.0423,-0.1899 -0.0242,-0.0599 -0.0572,-0.11023 -0.0966,-0.15234 -0.0432,-0.0462 -0.0939,-0.0825 -0.14887,-0.11091 -0.0616,-0.0318 -0.12927,-0.0543 -0.19947,-0.0699 -0.17731,-0.0395 -0.38003,-0.0374 -0.55814,-0.0235 0.17949,-0.008 0.3801,-0.001 0.55184,0.0482 0.0677,0.0194 0.13089,0.0453 0.18657,0.0794 0.0497,0.0304 0.0932,0.0671 0.1285,0.11113 0.0321,0.0401 0.0576,0.0864 0.0751,0.14028 0.0161,0.0497 0.0256,0.10636 0.0267,0.17117 0.002,0.11724 -0.0232,0.26204 -0.087,0.44216 -0.0569,0.16075 -0.14447,0.34937 -0.27053,0.57106 -0.11461,0.20155 -0.26091,0.43021 -0.4447,0.68987 -0.0693,0.0979 -0.14389,0.20017 -0.22411,0.30703 -0.28723,0.38263 -0.65868,0.84017 -1.14228,1.39054 -0.96993,1.10386 -2.35245,2.53732 -4.31344,4.41109 -1.60476,1.53338 -3.52698,3.2948 -5.78758,5.29778 -3.89023,3.44691 -8.35692,7.23245 -12.94919,11.0399 -2.01371,1.66957 -3.91652,3.23151 -5.63694,4.63782 -1.29777,1.06082 -2.76435,2.25347 -4.06212,3.3143 -0.24357,0.20007 -0.45378,0.33705 -0.63724,0.43772 -0.17693,0.0971 -0.31916,0.15535 -0.44279,0.209 -0.0597,0.0259 -0.11517,0.0508 -0.16439,0.0779 -0.0496,0.0273 -0.0948,0.0578 -0.13378,0.096 -0.0397,0.0388 -0.0713,0.0837 -0.0954,0.13807 -0.0241,0.0543 -0.0401,0.11651 -0.0502,0.18838 -0.003,0.0232 -0.002,0.047 9.3e-4,0.0704 0.003,0.0237 0.009,0.0479 0.0176,0.072 0.0166,0.0491 0.0426,0.10021 0.0755,0.15008 0.0702,0.10659 0.1723,0.20883 0.29453,0.28771 0.12104,0.0781 0.27772,0.14367 0.46529,0.15764 0.17552,0.0131 0.37756,-0.0192 0.5988,-0.12895 0.16047,-0.0807 0.34368,-0.18487 0.54827,-0.31119 0.20384,-0.12585 0.42931,-0.27389 0.67515,-0.44291 0.48915,-0.3363 1.05929,-0.75585 1.70024,-1.2489 1.27275,-0.97907 2.82188,-2.24575 4.56093,-3.71737 3.46542,-2.93252 7.65066,-6.64978 11.79963,-10.42662 4.2055,-3.82829 8.32248,-7.67091 11.61198,-10.8123 1.68888,-1.61284 3.15616,-3.03742 4.32572,-4.19915 0.59616,-0.59216 1.11431,-1.11537 1.5464,-1.56168 0.43894,-0.45338 0.78871,-0.82699 1.04256,-1.1143 0.096,-0.1081 0.17008,-0.24149 0.22774,-0.38487 0.0606,-0.15066 0.10462,-0.31621 0.13674,-0.48307 0.0709,-0.36837 0.0881,-0.76549 0.0872,-1.08069 -0.001,-0.41209 -0.0329,-0.75332 -0.0543,-0.92545 -0.006,-0.0523 -0.0129,-0.0964 -0.0189,-0.13296 -0.0403,-0.24362 -0.086,-0.25347 -0.0946,-0.2523 z"
       id="path6244"
       sodipodi:nodetypes="cssssc"
       inkscape:export-filename="/Users/opott/Desktop/path6244.png"
       inkscape:export-xdpi="300"
       inkscape:export-ydpi="300"
       inkscape:linked-fill="path2618"
       inkscape:original-d="m 210.48873,188.69917 c 0,0 0.32935,2.42782 -0.35163,3.19946 -4.06947,4.61122 -32.70935,31.27662 -37.77529,33.83029 -0.81974,0.41322 -1.38633,-0.28918 -1.34942,-0.53414 0.0815,-0.54103 0.49381,-0.25758 1.51017,-1.08766 8.05656,-6.57993 41.04509,-33.16888 33.89192,-32.72181"
       inkscape:path-effect="#path-effect2614" />
  </g>
  <g
     inkscape:label="Layer 1"
     inkscape:groupmode="layer"
     id="layer1"
     style="display:inline"
     transform="translate(-195.25875,-105.29166)">
    <path
       style="fill:#212529;fill-opacity:1;fill-rule:nonzero;stroke:none;stroke-width:0.529167;stroke-linecap:round;stroke-linejoin:miter;stroke-miterlimit:4;stroke-dasharray:none;stroke-opacity:1"
       d="m 221.56131,163.26257 c -1.96261,2.34006 -3.99932,4.6824 -5.88822,6.85622 -3.19498,3.6764 -6.15397,6.95261 -9.34132,9.98303 -1.38046,1.31202 -2.74201,2.52654 -4.20468,3.58487 -1.06682,0.7647 -2.1166,1.47799 -3.29115,1.74204 -1.1438,0.23205 -2.43164,0.68373 -3.00164,1.82379 -0.37159,0.91357 0.0535,1.88502 0.66148,2.49568 2.12546,2.21892 5.4505,2.65396 8.14632,2.44972 1.25712,-0.1004 2.34622,-0.78264 3.26751,-1.43309 1.45493,-1.00948 2.75773,-2.20591 3.94081,-3.3439 3.197,-3.07309 6.73957,-7.04567 9.15113,-9.63231 3.51767,-3.77113 6.07768,-6.46848 9.20399,-8.90471 1.35,-1.04997 2.59866,-1.89286 3.96989,-2.41905 0,0 0,0 0,0 1.11113,-0.41869 2.23138,-0.57075 3.15222,-0.1698 6.44363,2.73685 9.96905,3.11834 12.7333,2.96193 1.35812,-0.0768 2.19823,-0.32624 2.72771,-0.53422 0,0 0,0 0,0 0.30468,-0.11972 0.50064,-0.22718 0.6236,-0.30303 0.0705,-0.0435 0.11732,-0.0772 0.1478,-0.1013 0.10254,-0.0811 0.0237,-0.0371 -0.0111,-0.0177 0,0 0,0 0,0 -0.0537,0.0299 -0.13068,0.0711 -0.15609,0.0842 l 0,0 c -0.005,0.003 -0.008,0.004 -0.008,0.004 0,0 0.003,-0.002 0.008,-0.005 l 0,0 c 0.0302,-0.0181 0.0933,-0.057 0.14691,-0.0988 0,0 0,0 0,0 0.0734,-0.0572 0.0547,-0.0536 -0.0111,-0.0177 -0.0337,0.0184 -0.082,0.045 -0.1552,0.0817 -0.1268,0.0635 -0.32225,0.15491 -0.62645,0.25888 0,0 0,0 0,0 -0.53219,0.18196 -1.35221,0.39573 -2.6952,0.44364 -2.76081,0.0984 -6.16345,-0.32845 -12.57622,-3.10154 -1.05045,-0.4439 -2.27721,-0.30939 -3.4427,0.13924 0,0 0,0 0,0 -1.43002,0.541 -2.72509,1.39687 -4.09209,2.45194 -3.16881,2.44103 -5.77313,5.1523 -9.30111,8.90778 -2.42035,2.57512 -5.98736,6.54725 -9.16221,9.58196 -1.18044,1.12757 -2.465,2.30332 -3.88146,3.27931 -0.91985,0.62263 -1.92184,1.27004 -2.99182,1.32905 -2.60879,0.1591 -5.78844,-0.23421 -7.69033,-2.28569 -0.47436,-0.53698 -0.86049,-1.30087 -0.55441,-1.8602 0.35852,-0.87811 1.51238,-1.21411 2.60752,-1.49806 1.30981,-0.30851 2.43339,-1.05292 3.50409,-1.83407 1.49543,-1.08095 2.87895,-2.3114 4.26845,-3.63126 3.21077,-3.04872 6.1862,-6.33851 9.38579,-10.01905 1.89,-2.1738 3.92826,-4.51727 5.89603,-6.86343 2.84915,-3.39449 5.17712,-6.33083 6.96363,-9.66427 2.52593,-4.71998 2.77462,-8.59394 2.77462,-8.59394 0,0 -0.47724,3.84999 -3.11432,8.40484 -1.89214,3.27342 -4.20938,6.03819 -7.08364,9.4678 z"
       id="path709"
       sodipodi:nodetypes="cssssc"
       inkscape:export-filename="/Users/opott/Desktop/path6244.png"
       inkscape:export-xdpi="300"
       inkscape:export-ydpi="300"
       inkscape:original-d="m 253.59674,168.25635 c 0,0 -3.97609,3.10329 -16.19528,-2.13351 -7.59076,-3.25318 -25.69909,25.31118 -32.77847,25.79607 -7.07937,0.48489 -12.12893,-4.72992 -5.72169,-6.20657 3.79015,-0.8735 10.90177,-8.38376 16.99774,-15.39716 11.42614,-13.14576 14.35005,-16.79637 15.86023,-24.92525"
       inkscape:path-effect="#path-effect2471" />
    <path
       style="fill:#212529;fill-opacity:1;stroke:none;stroke-width:0.264583px;stroke-linecap:butt;stroke-linejoin:miter;stroke-opacity:1"
       d="m 197.34966,192.79171 c -1.88792,-1.34651 -2.70563,-3.69454 -1.57485,-5.38599 1.29852,-1.94236 3.95981,-2.12748 5.74489,-0.52965 1.71855,1.53827 2.32406,3.87091 1.41861,5.26097 -1.07563,1.65132 -3.63189,2.05029 -5.58865,0.65467 z"
       id="path2021"
       inkscape:path-effect="#path-effect2023"
       inkscape:original-d="m 197.34966,192.79171 c 1.51644,-2.12617 2.62261,-4.18686 4.17004,-5.91564"
       sodipodi:nodetypes="cc"
       inkscape:export-filename="/Users/opott/Desktop/path6244.png"
       inkscape:export-xdpi="300"
       inkscape:export-ydpi="300" />
    <path
       style="fill:#212529;fill-opacity:1;stroke:none;stroke-width:0.264583px;stroke-linecap:butt;stroke-linejoin:miter;stroke-opacity:1"
       d="m 222.95177,149.83057 c 0.0633,-1.83447 0.74459,-3.30159 1.52081,-3.27482 0.77621,0.0268 1.35483,1.53735 1.29156,3.37182 -0.0633,1.83447 -0.7446,3.30159 -1.52081,3.27482 -0.77621,-0.0268 -1.35483,-1.53735 -1.29156,-3.37182 z"
       id="path2119"
       inkscape:path-effect="#path-effect2121"
       inkscape:original-d="m 222.95177,149.83057 2.81236,0.097"
       sodipodi:nodetypes="cc"
       inkscape:export-filename="/Users/opott/Desktop/path6244.png"
       inkscape:export-xdpi="300"
       inkscape:export-ydpi="300" />
    <path
       style="display:inline;fill:#212529;fill-opacity:1;stroke:none;stroke-width:0.427593px;stroke-linecap:butt;stroke-linejoin:miter;stroke-opacity:1"
       d="m 244.00531,151.04456 c 1.54488,-1.71006 3.14149,-1.41593 3.56386,0.65653 0.42236,2.07247 -0.48867,5.14234 -2.03355,6.8524 -1.54489,1.71007 -3.14149,1.41594 -3.56386,-0.65653 -0.42236,-2.07247 0.48867,-5.14234 2.03355,-6.8524 z"
       id="path2119-5"
       inkscape:path-effect="#path-effect2726;#path-effect4234"
       inkscape:original-d="m 242.44082,153.5079 4.65928,2.58225"
       sodipodi:nodetypes="cc"
       inkscape:export-filename="/Users/opott/Desktop/path6244.png"
       inkscape:export-xdpi="300"
       inkscape:export-ydpi="300" />
    <path
       style="fill:#212529;fill-opacity:1;fill-rule:nonzero;stroke:none;stroke-width:0.264583px;stroke-linecap:round;stroke-linejoin:miter;stroke-opacity:1"
       d="m 216.73952,138.53665 c 0.28059,0.99909 0.4236,1.23275 0.46602,1.21809 0.0409,-0.0141 0.003,-0.27468 0.003,-0.27468 0,0 0.12312,0.23123 0.16703,0.21606 0.0424,-0.0147 -0.0105,-0.26258 -0.29005,-1.25661 l 4.7e-4,-1.3e-4 c -0.65692,-2.3375 -1.85314,-7.54314 -0.94642,-12.05824 0.4514,-2.23788 1.53964,-4.20704 1.53964,-4.20704 0,0 -1.42029,1.77406 -1.8926,4.13616 -0.91801,4.57132 0.29237,9.87651 0.9528,12.22652 z"
       id="path2455"
       sodipodi:nodetypes="cccc"
       inkscape:export-filename="/Users/opott/Desktop/path6244.png"
       inkscape:export-xdpi="300"
       inkscape:export-ydpi="300"
       inkscape:path-effect="#path-effect1863"
       inkscape:original-d="m 217.29095,139.72707 c 0,0 -3.97609,-11.44337 0.38791,-17.55297 m 0,0 c 0.87279,10.08569 2.23049,13.38293 2.23049,13.38293" />
    <path
       style="fill:#212529;fill-opacity:1;fill-rule:nonzero;stroke:none;stroke-width:0.264583px;stroke-linecap:round;stroke-linejoin:miter;stroke-opacity:1"
       d="m 225.95016,136.10343 c 0.27293,0.6599 0.50476,1.11323 0.6655,1.39355 0,0 0,0 0,0 0.099,0.17126 0.17709,0.28808 0.23529,0.36313 0.20214,0.31784 0.14347,-0.007 0.13108,-0.07 0,0 0,0 0,0 -0.0274,-0.12082 -0.0705,-0.25634 -0.0705,-0.25634 0,0 0.0845,0.11458 0.16921,0.20358 0,0 0,0 0,0 0.0575,0.0571 0.11119,0.10397 0.13914,0.10392 0.0197,-3e-5 0.0477,-0.0469 -0.008,-0.17396 -0.0286,-0.0875 -0.0778,-0.21294 -0.15222,-0.39089 0,0 0,0 0,0 -0.1253,-0.29631 -0.3222,-0.7349 -0.59202,-1.38701 -1.48972,-3.6011 -3.88843,-11.77399 0.72293,-19.63719 2.70717,-4.62304 7.09619,-7.82538 7.09619,-7.82538 0,0 -4.74826,2.72166 -7.57925,7.5421 -4.73575,8.07529 -2.27937,16.45533 -0.75734,20.13454 z"
       id="path2806"
       sodipodi:nodetypes="cccc"
       inkscape:export-filename="/Users/opott/Desktop/path6244.png"
       inkscape:export-xdpi="300"
       inkscape:export-ydpi="300"
       inkscape:path-effect="#path-effect1867"
       inkscape:original-d="m 227.1104,137.90802 c 0,0 -9.98871,-17.45599 7.17635,-29.48123 m 0,0 c -9.30986,14.93457 -6.30355,23.75955 -6.30355,23.75955" />
    <path
       style="fill:#212529;fill-opacity:1;fill-rule:nonzero;stroke:none;stroke-width:0.264583;stroke-linecap:round;stroke-linejoin:miter;stroke-miterlimit:4;stroke-dasharray:none;stroke-opacity:1"
       d="m 235.19718,123.72736 c -0.13568,1.36348 -0.0654,1.72112 -0.008,1.72268 0.0549,0.001 0.12799,-0.33814 0.12799,-0.33814 0,0 0.0416,0.34275 0.10158,0.34438 0.0574,0.002 0.10132,-0.32801 0.23552,-1.68355 l 3.5e-4,3e-5 c 0.31455,-3.16918 1.42369,-10.0631 5.25218,-14.66704 1.0169,-1.22165 2.04657,-2.14019 3.04375,-2.83626 0.93754,-0.65445 1.64251,-0.9778 1.64251,-0.9778 0,0 -0.7456,0.21383 -1.7643,0.78312 -1.06416,0.59469 -2.23618,1.48561 -3.27565,2.73683 -3.91557,4.70865 -5.03868,11.7162 -5.35625,14.91572 z"
       id="path2893"
       sodipodi:nodetypes="cccc"
       inkscape:export-filename="/Users/opott/Desktop/path6244.png"
       inkscape:export-xdpi="300"
       inkscape:export-ydpi="300"
       inkscape:original-d="m 235.3039,125.45446 c 0,0 0.41143,-16.07407 10.28913,-20.1628 m 0,0 c -7.68457,11.8868 -8.25533,21.80049 -8.25533,21.80049"
       inkscape:path-effect="#path-effect1871" />
    <path
       style="fill:#212529;fill-opacity:1;fill-rule:nonzero;stroke:none;stroke-width:0.264583;stroke-linecap:round;stroke-linejoin:miter;stroke-miterlimit:4;stroke-dasharray:none;stroke-opacity:1"
       d="m 243.71294,127.47534 c -0.24625,0.36023 -0.19774,0.50177 -0.17876,0.51155 0.0375,0.0193 0.12691,-0.0516 0.12691,-0.0516 0,0 -0.008,0.1129 0.0304,0.13263 0.0227,0.0117 0.15166,-0.0319 0.32933,-0.41795 l 0.003,0.001 c 0.49705,-0.87618 1.68464,-2.81554 3.25092,-4.34497 0.76873,-0.74977 1.5733,-1.48182 1.5733,-1.48182 0,0 -1.01541,0.43301 -1.82481,1.22425 -1.59906,1.56144 -2.80876,3.53688 -3.31253,4.42491 z"
       id="path3057"
       sodipodi:nodetypes="cccc"
       inkscape:export-filename="/Users/opott/Desktop/path6244.png"
       inkscape:export-xdpi="300"
       inkscape:export-ydpi="300"
       inkscape:original-d="m 243.61088,128.03127 c 0,0 2.23049,-4.36399 5.2368,-6.20657 m 0,0 c -1.06675,2.27897 -0.67884,5.38226 -0.67884,5.38226"
       inkscape:path-effect="#path-effect1875" />
    <path
       style="display:inline;fill:#212529;fill-opacity:1;fill-rule:nonzero;stroke:none;stroke-width:0.345507;stroke-linecap:round;stroke-linejoin:miter;stroke-miterlimit:4;stroke-dasharray:none;stroke-opacity:1"
       d="m 253.89267,127.73496 c -0.62286,0.85944 -0.15873,0.53381 -0.15873,0.53381 0,0 -0.1626,0.5173 0.4472,-0.32483 l 0.002,0.001 c 0.73402,-1.01324 2.48839,-3.25731 4.80634,-5.02975 1.16435,-0.88984 2.39791,-1.70653 2.39791,-1.70653 0,0 -1.40724,0.4953 -2.61658,1.42055 -2.35309,1.79931 -4.13635,4.07908 -4.87921,5.10453 z"
       id="path3057-0"
       sodipodi:nodetypes="cccc"
       inkscape:export-filename="/Users/opott/Desktop/path6244.png"
       inkscape:export-xdpi="300"
       inkscape:export-ydpi="300"
       inkscape:original-d="m 253.6591,128.38095 c 0,0 3.29148,-5.04293 7.72782,-7.17218 m 0,0 c -1.57418,2.63353 -1.00175,6.21963 -1.00175,6.21963"
       inkscape:path-effect="#path-effect2468" />
    <path
       style="display:inline;fill:#212529;fill-opacity:1;fill-rule:nonzero;stroke:none;stroke-width:0.530744;stroke-linecap:round;stroke-linejoin:miter;stroke-miterlimit:4;stroke-dasharray:none;stroke-opacity:1"
       d="m 273.57332,139.79673 c -0.27393,0.18886 -0.45777,0.33079 -0.57462,0.43088 -0.25527,0.19523 -0.18569,0.2363 -0.15412,0.2336 0.0612,-0.005 0.1801,-0.0565 0.1801,-0.0565 0,0 -0.0845,0.098 -0.10565,0.15511 -0.0132,0.0356 0.0115,0.099 0.26574,-0.0755 0.13187,-0.0799 0.31842,-0.20358 0.59229,-0.39076 1.56591,-1.07494 5.23671,-3.3973 9.58577,-4.79645 2.2052,-0.70911 4.48722,-1.18663 4.48722,-1.18663 0,0 -2.335,0.11572 -4.59747,0.84392 -4.38983,1.41227 -8.10057,3.75864 -9.67926,4.84236 z"
       id="path3057-4"
       sodipodi:nodetypes="cccc"
       inkscape:export-filename="/Users/opott/Desktop/path6244.png"
       inkscape:export-xdpi="300"
       inkscape:export-ydpi="300"
       inkscape:original-d="m 272.86238,140.52523 c 0,0 7.21781,-5.50817 14.98767,-6.41478 m 0,0 c -3.545,2.94388 -4.16235,8.21765 -4.16235,8.21765"
       inkscape:path-effect="#path-effect2439" />
    <path
       style="fill:#212529;fill-opacity:1;fill-rule:nonzero;stroke:none;stroke-width:0.264583px;stroke-linecap:round;stroke-linejoin:miter;stroke-opacity:1"
       d="m 250.44721,115.32319 c -0.17783,0.24572 -0.29395,0.42283 -0.36551,0.54506 -0.17372,0.24975 -0.0844,0.26544 -0.0628,0.25725 0.0539,-0.0205 0.14566,-0.0996 0.14566,-0.0996 0,0 -0.0436,0.11307 -0.0438,0.17046 -9e-5,0.0261 0.0453,0.0971 0.21988,-0.14453 0.0919,-0.10816 0.21886,-0.27234 0.39768,-0.5168 1.01792,-1.39907 3.32044,-4.43976 5.51682,-6.46006 0.97195,-0.89159 1.99652,-1.72059 1.99652,-1.72059 0,0 -1.22531,0.51954 -2.24023,1.45563 -2.21648,2.03879 -4.54329,5.11002 -5.56422,6.51322 z"
       id="path3149"
       sodipodi:nodetypes="cccc"
       inkscape:export-filename="/Users/opott/Desktop/path6244.png"
       inkscape:export-xdpi="300"
       inkscape:export-ydpi="300"
       inkscape:original-d="m 250.05706,116.17931 c 0,0 4.89737,-7.07937 8.1946,-8.82497 m 0,0 c -2.58711,5.79858 -2.90932,8.14613 -2.90932,8.14613"
       inkscape:path-effect="#path-effect1879" />
    <path
       style="fill:#212529;fill-opacity:1;fill-rule:nonzero;stroke:none;stroke-width:0.3175;stroke-linecap:round;stroke-linejoin:miter;stroke-miterlimit:4;stroke-dasharray:none;stroke-opacity:1"
       d="m 266.37196,133.88722 c -3.23156,2.39632 -1.47889,1.38276 -1.47889,1.38276 0,0 -1.47889,1.38276 1.75267,-1.01356 l 0.004,-0.003 c 3.71451,-2.88687 11.53591,-9.6254 14.39664,-17.06859 0.7325,-1.89984 0.9966,-3.69712 0.96452,-5.22532 -0.0305,-1.45156 -0.31079,-2.37889 -0.31079,-2.37889 0,0 0.16604,0.95416 0.0817,2.37458 -0.0902,1.51811 -0.44933,3.19701 -1.16479,5.0646 -2.82704,7.35554 -10.54824,13.9938 -14.24954,16.87041 z"
       id="path3315"
       sodipodi:nodetypes="cccc"
       inkscape:export-filename="/Users/opott/Desktop/path6244.png"
       inkscape:export-xdpi="300"
       inkscape:export-ydpi="300"
       inkscape:original-d="m 264.4884,135.57002 c 0,0 19.61202,-13.44043 17.21196,-25.98939 m 0,0 c 4.77626,14.1199 -7.47453,28.73234 -7.47453,28.73234"
       inkscape:path-effect="#path-effect1837" />
    <path
       style="fill:#212529;fill-opacity:1;fill-rule:nonzero;stroke:none;stroke-width:0.235895;stroke-linecap:butt;stroke-linejoin:miter;stroke-miterlimit:4;stroke-dasharray:none;stroke-opacity:1"
       d="m 264.05802,163.56079 c -0.71461,-0.9246 -0.48946,-0.36317 -0.48946,-0.36317 0,0 -0.49775,-0.36262 0.22267,0.56938 l -0.001,8.6e-4 c 0.59142,0.76516 1.70333,2.15992 2.91462,3.4562 0.78246,0.84157 1.45049,1.4823 2.18284,1.98453 0.66413,0.45544 1.16833,0.63662 1.16833,0.63662 0,0 -0.46848,-0.25926 -1.06522,-0.77101 -0.72224,-0.61938 -1.19452,-1.18463 -2.03752,-2.08228 -1.20215,-1.28649 -2.30549,-2.67054 -2.89404,-3.43199 z"
       id="path3371"
       inkscape:export-filename="/Users/opott/Desktop/path6244.png"
       inkscape:export-xdpi="300"
       inkscape:export-ydpi="300"
       inkscape:path-effect="#path-effect2009"
       inkscape:original-d="m 263.47911,163.07755 c 0,0 4.0927,5.54377 6.5768,6.76766 m 0,0 c 0.54455,0.10866 -2.91086,-8.58676 -5.18016,-10.45654"
       sodipodi:nodetypes="cccc" />
    <path
       style="display:inline;fill:#212529;fill-opacity:1;fill-rule:nonzero;stroke:none;stroke-width:0.264583;stroke-linecap:butt;stroke-linejoin:miter;stroke-miterlimit:4;stroke-dasharray:none;stroke-opacity:1"
       d="m 273.04698,161.06996 c -0.29272,-0.19537 -0.49956,-0.32213 -0.64385,-0.40023 -0.29568,-0.20683 -0.31007,-0.0721 -0.30479,-0.0569 0.0226,0.0654 0.11522,0.17396 0.11522,0.17396 0,0 -0.13535,-0.0452 -0.20452,-0.0419 -0.0154,7.4e-4 -0.13681,0.0644 0.16715,0.2616 0.1265,0.10434 0.32263,0.24889 0.61464,0.44552 0.96138,0.64452 2.56622,1.71367 4.10873,2.71066 0.99269,0.64165 1.93782,1.18104 2.75739,1.6044 0.41156,0.21264 0.70597,0.35354 0.98657,0.47201 0,0 0,0 0,0 0.29937,0.13083 0.51298,0.15993 0.51298,0.15993 0,0 -0.17242,-0.0616 -0.47089,-0.24104 0,0 0,0 0,0 -0.27482,-0.17178 -0.50405,-0.32803 -0.90301,-0.6012 -0.63299,-0.43358 -1.76845,-1.22147 -2.63334,-1.78043 -1.5397,-0.99517 -3.14182,-2.06251 -4.10228,-2.70641 z"
       id="path3371-2"
       inkscape:export-filename="/Users/opott/Desktop/path6244.png"
       inkscape:export-xdpi="300"
       inkscape:export-ydpi="300"
       inkscape:path-effect="#path-effect2330"
       inkscape:original-d="m 272.03258,160.66462 c 0,0 8.4722,5.73442 9.12392,5.73442 m 0,0 c 0.65171,0 -5.32229,-8.41546 -8.36359,-9.90492"
       sodipodi:nodetypes="cccc" />
    <path
       style="fill:#212529;fill-opacity:1;fill-rule:nonzero;stroke:none;stroke-width:0.264583px;stroke-linecap:butt;stroke-linejoin:miter;stroke-opacity:1"
       d="m 277.29617,152.57198 c -0.43806,-0.16394 -0.74179,-0.26793 -0.95022,-0.32984 -0.12501,-0.0359 -0.21528,-0.057 -0.27856,-0.0671 -0.23853,-0.0618 -0.0891,0.0789 -0.0445,0.11726 0,0 0,0 0,0 0.0634,0.0511 0.13891,0.0987 0.13891,0.0987 0,0 -0.0881,-0.0143 -0.16946,-0.0182 0,0 0,0 0,0 -0.0583,-9e-4 -0.265,0.005 -0.0445,0.11727 0.0542,0.0345 0.13597,0.0785 0.25363,0.13437 0.19689,0.0912 0.49555,0.21445 0.93344,0.37833 1.79256,0.67087 5.09169,1.88918 7.8142,2.80319 1.08021,0.36276 2.06943,0.62712 2.9394,0.80631 0.41581,0.0857 0.71251,0.13439 0.99425,0.16147 0,0 0,0 0,0 0.31618,0.0348 0.51883,-0.0185 0.51883,-0.0185 0,0 -0.17864,0.008 -0.50228,-0.0731 0,0 0,0 0,0 -0.28197,-0.076 -0.53601,-0.16091 -0.94656,-0.30338 -0.79413,-0.27594 -1.81758,-0.65999 -2.85723,-1.00893 -2.7172,-0.91222 -6.00797,-2.12749 -7.79937,-2.79793 z"
       id="path3373"
       inkscape:export-filename="/Users/opott/Desktop/path6244.png"
       inkscape:export-xdpi="300"
       inkscape:export-ydpi="300"
       inkscape:path-effect="#path-effect2013"
       inkscape:original-d="m 275.8987,152.29119 c 0,0 12.59196,4.79677 13.50291,4.46412 m 0,0 c 0.91094,-0.33265 -10.12835,-8.79365 -11.49475,-8.29468"
       sodipodi:nodetypes="cccc" />
  </g>
  <g
     inkscape:groupmode="layer"
     id="layer2"
     inkscape:label="Drawing"
     style="display:none"
     transform="translate(-195.25875,-105.29166)">
    <image
       width="242.29843"
       height="172.45319"
       preserveAspectRatio="none"
       xlink:href="../../../Downloads/IMG_5675%20copy.jpg"
       id="image49"
       x="18.284182"
       y="-514.93988"
       transform="rotate(90)"
       style="display:inline" />
  </g>
</svg>
